<svg width="30" height="31" viewBox="0 0 30 31" fill="none" xmlns="http://www.w3.org/2000/svg">
<path d="M2.09899 0H27.901C28.4814 0 29.0079 0.23622 29.3858 0.614173C29.7638 0.992126 30 1.51856 30 2.09899V28.1114C30 28.6918 29.7638 29.2182 29.3858 29.5962C29.0079 29.9741 28.4814 30.2104 27.901 30.2104H2.09899C1.51856 30.2104 0.992126 29.9741 0.614173 29.5962C0.23622 29.2182 0 28.6918 0 28.1114V2.09899C0 1.51856 0.23622 0.992126 0.614173 0.614173C0.992126 0.23622 1.51856 0 2.09899 0ZM27.901 1.80877H2.09899C2.018 1.80877 1.94376 1.84252 1.88976 1.89651C1.83577 1.95051 1.80202 2.02475 1.80202 2.10574V28.1181C1.80202 28.1991 1.83577 28.2733 1.88976 28.3273C1.94376 28.3813 2.018 28.4151 2.09899 28.4151H27.901C27.982 28.4151 28.0562 28.3813 28.1102 28.3273C28.1642 28.2733 28.198 28.1991 28.198 28.1181V2.10574C28.198 2.02475 28.1642 1.95051 28.1102 1.89651C28.0562 1.84252 27.982 1.80877 27.901 1.80877Z" fill="#6C63FF"/>
<path d="M22.5996 15.125C22.5996 15.582 22.2188 15.9375 21.7871 15.9375H20.9746L21 20C21 20.0762 21 20.1523 21 20.2031V20.6094C21 21.1934 20.543 21.625 19.9844 21.625H19.5781C19.5273 21.625 19.502 21.625 19.4766 21.625C19.4512 21.625 19.4004 21.625 19.375 21.625H17.9531C17.3691 21.625 16.9375 21.1934 16.9375 20.6094V18.375C16.9375 17.9434 16.5566 17.5625 16.125 17.5625H14.5C14.043 17.5625 13.6875 17.9434 13.6875 18.375V20.6094C13.6875 21.1934 13.2305 21.625 12.6719 21.625H11.25C11.1992 21.625 11.1738 21.625 11.123 21.625C11.0977 21.625 11.0723 21.625 11.0469 21.625H10.6406C10.0566 21.625 9.625 21.1934 9.625 20.6094V17.7656C9.625 17.7656 9.625 17.7402 9.625 17.7148V15.9375H8.8125C8.35547 15.9375 8 15.582 8 15.125C8 14.8965 8.07617 14.6934 8.25391 14.5156L14.7539 8.85352C14.9316 8.67578 15.1348 8.625 15.3125 8.625C15.4902 8.625 15.6934 8.70117 15.8457 8.82812L22.3203 14.5156C22.5234 14.6934 22.625 14.8965 22.5996 15.125Z" fill="#6C63FF"/>
</svg>
