<svg width="30" height="36" viewBox="0 0 30 36" fill="none" xmlns="http://www.w3.org/2000/svg">
<path d="M9.03712 24.9111C8.53768 24.9111 8.13273 24.5062 8.13273 24.0068C8.13273 23.5073 8.53768 23.1024 9.03712 23.1024H15.7593C16.2587 23.1024 16.6637 23.5073 16.6637 24.0068C16.6637 24.5062 16.2587 24.9111 15.7593 24.9111H9.03712ZM9.03712 12.1147C8.53768 12.1147 8.13273 11.7098 8.13273 11.2103C8.13273 10.7109 8.53768 10.306 9.03712 10.306H20.9629C21.4623 10.306 21.8673 10.7109 21.8673 11.2103C21.8673 11.7098 21.4623 12.1147 20.9629 12.1147H9.03712ZM2.09899 0H27.901C28.4814 0 29.0079 0.23622 29.3858 0.614173C29.7638 0.992126 30 1.51856 30 2.09899V33.1114C30 33.6918 29.7638 34.2182 29.3858 34.5962C29.0079 34.9741 28.4814 35.2104 27.901 35.2104H2.09899C1.51856 35.2104 0.992126 34.9741 0.614173 34.5962C0.23622 34.2182 0 33.6918 0 33.1114V2.09899C0 1.51856 0.23622 0.992126 0.614173 0.614173C0.992126 0.23622 1.51856 0 2.09899 0ZM27.901 1.80877H2.09899C2.018 1.80877 1.94376 1.84252 1.88976 1.89651C1.83577 1.95051 1.80202 2.02475 1.80202 2.10574V33.1181C1.80202 33.1991 1.83577 33.2733 1.88976 33.3273C1.94376 33.3813 2.018 33.4151 2.09899 33.4151H27.901C27.982 33.4151 28.0562 33.3813 28.1102 33.3273C28.1642 33.2733 28.198 33.1991 28.198 33.1181V2.10574C28.198 2.02475 28.1642 1.95051 28.1102 1.89651C28.0562 1.84252 27.982 1.80877 27.901 1.80877ZM9.03712 18.5129C8.53768 18.5129 8.13273 18.108 8.13273 17.6085C8.13273 17.1091 8.53768 16.7042 9.03712 16.7042H20.9629C21.4623 16.7042 21.8673 17.1091 21.8673 17.6085C21.8673 18.108 21.4623 18.5129 20.9629 18.5129H9.03712Z" fill="#6C63FF"/>
</svg>
