<svg width="30" height="30" viewBox="0 0 30 30" fill="none" xmlns="http://www.w3.org/2000/svg">
<path d="M15 0C19.1414 0 22.8926 1.6793 25.6066 4.39336C28.3207 7.10742 30 10.8586 30 15C30 19.1414 28.3207 22.892 25.6066 25.6061C22.8926 28.3201 19.1414 29.9994 15 29.9994C10.8586 29.9994 7.10742 28.3201 4.39336 25.6061C1.6793 22.892 0 19.1414 0 15C0 10.8586 1.6793 7.10742 4.39336 4.39336C7.10742 1.6793 10.8586 0 15 0ZM13.8773 7.99512C13.8773 7.37578 14.3807 6.87246 15 6.87246C15.6193 6.87246 16.1227 7.37578 16.1227 7.99512V11.6602C16.1227 12.2795 15.6193 12.7828 15 12.7828C14.3807 12.7828 13.8773 12.2795 13.8773 11.6602V7.99512ZM18.1512 11.0684C17.6725 10.6787 17.5992 9.97324 17.9883 9.49394C18.3779 9.01523 19.084 8.94199 19.5627 9.33164C20.3982 10.009 21.0791 10.8668 21.5432 11.8418C21.9926 12.7857 22.2445 13.8422 22.2445 14.9543C22.2445 16.9547 21.433 18.7664 20.1229 20.0766L20.0543 20.1398C18.7471 21.4137 16.9623 22.1982 15 22.1982C13.0043 22.1982 11.192 21.3861 9.88008 20.0736C8.56699 18.7664 7.75547 16.9547 7.75547 14.9543C7.75547 13.8475 8.00684 12.7945 8.45508 11.8506C8.91973 10.8727 9.59941 10.0131 10.4303 9.33691C10.909 8.94727 11.615 9.02051 12.0041 9.49922C12.3938 9.97851 12.3205 10.684 11.8418 11.0736C11.2699 11.5395 10.8012 12.1318 10.4813 12.8062C10.1736 13.4531 10.0008 14.1826 10.0008 14.9543C10.0008 16.3348 10.5615 17.5846 11.465 18.4887C12.3662 19.3951 13.6166 19.9529 15 19.9529C16.357 19.9529 17.5857 19.415 18.4828 18.5437L18.535 18.4887C19.4385 17.5846 19.9992 16.3348 19.9992 14.9543C19.9992 14.1838 19.8258 13.4549 19.517 12.8062C19.1966 12.1326 18.73 11.5389 18.1512 11.0684ZM24.1846 5.81543C21.8344 3.46582 18.5865 2.01152 15 2.01152C11.4135 2.01152 8.16562 3.46582 5.81543 5.81543C3.46582 8.16562 2.01152 11.4135 2.01152 15C2.01152 18.5865 3.46582 21.8338 5.81543 24.184C8.16562 26.5336 11.4135 27.9879 15 27.9879C18.5865 27.9879 21.8344 26.5336 24.1846 24.184C26.5342 21.8338 27.9885 18.5865 27.9885 15C27.9885 11.4135 26.5342 8.16562 24.1846 5.81543Z" fill="#6C63FF"/>
</svg>
