<svg width="30" height="30" viewBox="0 0 30 30" fill="none" xmlns="http://www.w3.org/2000/svg">
<path d="M23.92 4.56661C23.8394 4.48605 23.7564 4.42794 23.6709 4.39181C23.5909 4.35787 23.4974 4.34127 23.3902 4.34127C23.2825 4.34127 23.1871 4.35836 23.106 4.39279C23.022 4.42819 22.941 4.48531 22.8633 4.56417L22.8582 4.5693L21.3428 6.08003C21.1158 6.30586 20.765 6.331 20.5103 6.15644C20.3321 6.04121 20.1422 5.93013 19.943 5.82246C19.7318 5.70821 19.5247 5.60567 19.3226 5.51289C19.1119 5.4167 18.8968 5.32613 18.6778 5.24117C18.4793 5.16402 18.2582 5.08541 18.0169 5.00582C17.7408 4.91475 17.5653 4.65792 17.5653 4.3818V2.05809C17.5653 1.94676 17.5477 1.84837 17.5128 1.76268C17.4779 1.67796 17.4247 1.59911 17.3512 1.52587C17.2796 1.45433 17.202 1.40136 17.117 1.36693C17.0316 1.33202 16.933 1.31469 16.8214 1.31469H13.9052C13.8019 1.31469 13.7103 1.33129 13.6303 1.36449C13.5453 1.3994 13.462 1.45653 13.3798 1.53612L13.3788 1.53685C13.3065 1.60912 13.2533 1.68602 13.2191 1.76781C13.184 1.85155 13.1664 1.94823 13.1664 2.05809V4.18551C13.1664 4.509 12.9328 4.77779 12.6251 4.83272C12.3915 4.88839 12.1757 4.946 11.9792 5.00631C11.7638 5.07222 11.5473 5.14718 11.3302 5.23189C11.3195 5.23604 11.3087 5.23995 11.298 5.24337C11.1083 5.3171 10.9084 5.40254 10.6984 5.49947C10.485 5.59785 10.2863 5.69771 10.1022 5.79805C9.84269 5.9394 9.52971 5.88692 9.32951 5.6899L9.32927 5.69014L7.65106 4.0361C7.64593 4.03097 7.64081 4.02585 7.63568 4.02072C7.56415 3.94504 7.48895 3.88986 7.4101 3.85544C7.33441 3.82248 7.24481 3.80563 7.14032 3.80563C7.03656 3.80563 6.94379 3.82321 6.86225 3.85812C6.77289 3.89621 6.68745 3.95578 6.60541 4.0361L6.60493 4.03659L4.56905 6.0771L4.56783 6.07856L4.56905 6.07978C4.48556 6.16328 4.42648 6.24629 4.39157 6.32881C4.35763 6.40888 4.34079 6.50239 4.34079 6.60932C4.34079 6.71723 4.35787 6.81244 4.3923 6.89399C4.4277 6.97773 4.48458 7.05878 4.56368 7.13642L4.56881 7.14154L6.07954 8.65716C6.30537 8.8842 6.33051 9.23503 6.15596 9.48967C6.04072 9.66813 5.92964 9.85783 5.82222 10.057C5.70796 10.2685 5.60542 10.475 5.51265 10.6776C5.41622 10.8881 5.32564 11.1034 5.24044 11.3224C5.16329 11.5207 5.08492 11.7418 5.00533 11.9831C4.91427 12.2594 4.65719 12.4347 4.38131 12.4347L2.05833 12.435C1.94652 12.435 1.84837 12.4523 1.76268 12.487C1.67821 12.5216 1.60008 12.5744 1.5288 12.6459L1.52611 12.6488C1.45458 12.7204 1.4016 12.7982 1.36693 12.8827C1.33202 12.9684 1.31493 13.0668 1.31493 13.1784V16.0948C1.31493 16.1979 1.33129 16.2897 1.36449 16.3695C1.39965 16.4545 1.45678 16.5377 1.53636 16.6202L1.5371 16.6207C1.60912 16.693 1.68627 16.7464 1.76781 16.7804C1.85179 16.8155 1.94847 16.8331 2.05833 16.8331H4.18551C4.509 16.8331 4.77779 17.0668 4.83272 17.3746C4.88839 17.608 4.946 17.8241 5.00631 18.0206C5.07247 18.2359 5.14718 18.4522 5.23189 18.6693C5.31148 18.8761 5.40181 19.0909 5.5024 19.3136C5.60518 19.5413 5.70576 19.7489 5.80342 19.9366C5.9394 20.1969 5.88301 20.5069 5.68477 20.7039L5.68526 20.7044L4.03097 22.3538L4.02048 22.3641C3.94479 22.4359 3.88962 22.511 3.85544 22.5897C3.82223 22.6653 3.80563 22.7552 3.80563 22.8597C3.80563 22.9634 3.82321 23.056 3.85788 23.1375C3.89596 23.2269 3.95553 23.3126 4.0361 23.3943L6.06465 25.4463C6.14399 25.5198 6.22676 25.5735 6.31343 25.6075C6.40034 25.6419 6.49897 25.6587 6.60932 25.6587C6.72065 25.6587 6.82099 25.6414 6.90937 25.6065C6.99433 25.573 7.07416 25.5218 7.14814 25.4524L8.65178 23.9249C8.87859 23.6944 9.23381 23.6668 9.49113 23.8445C9.66911 23.9593 9.85832 24.0699 10.057 24.177C10.2685 24.2915 10.475 24.3941 10.6776 24.4866C10.8881 24.5833 11.1034 24.6739 11.3224 24.7588C11.5207 24.8357 11.7416 24.9143 11.9831 24.9939C12.2594 25.085 12.4347 25.3421 12.4347 25.618L12.435 27.9417C12.435 28.053 12.4523 28.1514 12.4872 28.2371C12.5219 28.3218 12.5746 28.3997 12.6461 28.4712L12.6474 28.4727L12.6486 28.4712C12.7919 28.6145 12.9677 28.6851 13.1781 28.6851H16.0941C16.1976 28.6851 16.2892 28.6687 16.3693 28.6355C16.4542 28.6004 16.5375 28.5432 16.6195 28.4636L16.6205 28.4629C16.6925 28.3906 16.746 28.3137 16.7801 28.2322C16.8155 28.1482 16.8331 28.0518 16.8331 27.9419V25.8142C16.8331 25.491 17.0663 25.222 17.3744 25.1673C17.6075 25.1116 17.8236 25.0538 18.0204 24.9937C18.2354 24.9275 18.452 24.8528 18.6688 24.7684C18.8758 24.6885 19.0909 24.5982 19.3141 24.4976C19.5411 24.3948 19.7489 24.2945 19.9359 24.1968C20.1966 24.0608 20.5067 24.1175 20.7037 24.3155L20.7042 24.315L22.3536 25.969L22.3636 25.9795C22.4361 26.0557 22.5113 26.1106 22.5897 26.1448C22.6663 26.1778 22.7588 26.1946 22.8692 26.1946C22.9774 26.1946 23.0713 26.177 23.1524 26.1421C23.2339 26.1067 23.3099 26.0523 23.379 25.9793C23.3865 25.971 23.3946 25.9629 23.4034 25.9549L25.4466 23.9354C25.5196 23.8563 25.5735 23.7732 25.6072 23.6866C25.6416 23.5997 25.6587 23.5008 25.6587 23.3904C25.6587 23.2791 25.6416 23.1788 25.6067 23.0904C25.5728 23.0054 25.5218 22.9258 25.4522 22.8519L23.9249 21.348C23.6941 21.1212 23.6668 20.7662 23.8443 20.5086C23.9593 20.3306 24.0699 20.1414 24.177 19.943C24.2915 19.7318 24.3941 19.525 24.4866 19.3224C24.5831 19.1119 24.6736 18.8966 24.7588 18.6776C24.8355 18.4793 24.9143 18.2582 24.9939 18.0167C25.085 17.7403 25.3421 17.565 25.6182 17.565L27.9414 17.5648C28.053 17.5648 28.1516 17.5475 28.2371 17.5126C28.3215 17.4779 28.3997 17.4252 28.4712 17.3539L28.4736 17.3512C28.5452 17.2794 28.5986 17.2015 28.6328 17.1168C28.6677 17.0314 28.6848 16.933 28.6848 16.8214V13.9049C28.6848 13.8019 28.6687 13.7101 28.6353 13.63C28.6004 13.5453 28.5432 13.4618 28.4636 13.3793L28.4627 13.3786C28.3906 13.3063 28.3135 13.2531 28.2319 13.2189C28.1485 13.1837 28.0518 13.1662 27.9417 13.1662H25.8145C25.4869 13.1662 25.2156 12.9271 25.1656 12.6139C25.1141 12.4081 25.0559 12.1994 24.99 11.9875C24.9266 11.7841 24.8523 11.569 24.7654 11.3417C24.761 11.3307 24.7574 11.3195 24.7539 11.3083C24.6714 11.0922 24.587 10.8891 24.5003 10.6989C24.4063 10.4931 24.3067 10.2941 24.2012 10.1017C24.0601 9.84221 24.1126 9.52922 24.3094 9.32903V9.32878L25.9634 7.65057C25.9685 7.64545 25.9734 7.64032 25.9788 7.63519C26.0547 7.56366 26.1099 7.48846 26.1443 7.40985C26.1773 7.33417 26.1944 7.24457 26.1944 7.14008C26.1944 7.03632 26.1768 6.94355 26.1419 6.862C26.1038 6.77265 26.0442 6.6872 25.9637 6.60517L25.9632 6.60468L23.9224 4.56881L23.92 4.56661ZM24.1792 3.18454C24.4239 3.28782 24.646 3.43894 24.8462 3.63913L24.8467 3.63937L26.8928 5.68086L26.898 5.68599C27.095 5.88618 27.2456 6.10664 27.3487 6.34834C27.4551 6.5976 27.5088 6.86152 27.5088 7.14008C27.5088 7.42279 27.4539 7.68695 27.3457 7.93377C27.2403 8.17596 27.0862 8.39129 26.887 8.58147L25.5767 9.91081C25.6153 9.99113 25.6538 10.0724 25.6912 10.1547C25.7962 10.3837 25.8924 10.6132 25.9798 10.8429C25.9847 10.8532 25.9888 10.8637 25.9927 10.8744C26.0799 11.1032 26.1634 11.3463 26.243 11.6022C26.2686 11.6847 26.2935 11.7677 26.3174 11.8515H27.9414C28.2236 11.8515 28.4878 11.9032 28.7354 12.0067C28.9785 12.1085 29.1982 12.2587 29.3943 12.4562L29.4082 12.4701C29.6013 12.6698 29.7478 12.89 29.8474 13.1317C29.9495 13.3776 30 13.6351 30 13.9049V16.8212C30 17.1017 29.9504 17.3644 29.8503 17.6097C29.7502 17.8546 29.6011 18.077 29.4016 18.277L29.4006 18.2777L29.3992 18.2794L29.3982 18.2804C29.198 18.4798 28.9758 18.6295 28.7302 18.7296C28.4846 18.8294 28.2219 18.8792 27.9417 18.8792H26.084C26.0515 18.9666 26.0179 19.057 25.9815 19.1493C25.8885 19.3883 25.7879 19.6273 25.6787 19.8661C25.5657 20.1129 25.4507 20.346 25.3335 20.5636C25.295 20.6348 25.2554 20.7059 25.2149 20.7769L26.3745 21.9185C26.3831 21.9266 26.3911 21.9346 26.3999 21.9434C26.5901 22.1446 26.7332 22.368 26.8296 22.6121C26.9263 22.8572 26.9741 23.117 26.9741 23.3899C26.9741 23.6619 26.9265 23.9195 26.8306 24.1636C26.7346 24.407 26.593 24.6294 26.4048 24.8311C26.3982 24.8379 26.3914 24.845 26.3843 24.8518L24.3262 26.8863C24.1331 27.0886 23.9156 27.2434 23.6714 27.3484C23.4249 27.4549 23.1583 27.5088 22.8699 27.5088C22.5877 27.5088 22.3216 27.4536 22.0716 27.346C21.824 27.2388 21.6053 27.0838 21.4146 26.8826L20.1099 25.5745C20.0228 25.6165 19.9373 25.6563 19.8543 25.6939C19.6322 25.794 19.3946 25.8929 19.1424 25.9903C18.9054 26.0826 18.6581 26.1678 18.4015 26.2464C18.316 26.2725 18.2318 26.2974 18.1488 26.3211V27.9417C18.1488 28.2236 18.0968 28.488 17.9933 28.7354C17.8912 28.9788 17.7416 29.1982 17.5436 29.3945L17.5296 29.4087C17.3299 29.6013 17.1095 29.7476 16.8683 29.8477C16.6222 29.9495 16.3646 30 16.0948 30H13.1784C12.6049 30 12.1205 29.8022 11.7191 29.4009L11.7204 29.3997C11.5202 29.1992 11.37 28.9763 11.2699 28.7305C11.1698 28.4849 11.12 28.2224 11.12 27.9419V26.0843C11.0324 26.0518 10.9423 26.0179 10.8498 25.9817C10.611 25.8887 10.372 25.7881 10.1332 25.6787C9.88639 25.566 9.65324 25.4507 9.43547 25.3333C9.36443 25.295 9.29338 25.2554 9.22234 25.2149L8.08074 26.3745C8.07269 26.3831 8.06439 26.3914 8.05584 26.3997C7.85467 26.5904 7.63129 26.7334 7.38715 26.8296C7.14203 26.9263 6.88227 26.9744 6.60932 26.9744C6.33735 26.9744 6.07954 26.9268 5.83565 26.8306C5.59224 26.7346 5.37007 26.593 5.16817 26.4051L5.16842 26.4046C5.16133 26.3982 5.15425 26.3914 5.14766 26.3843L3.10154 24.3145C2.90476 24.1143 2.75413 23.8936 2.6511 23.6519C2.5449 23.4024 2.49095 23.1387 2.49095 22.8604C2.49095 22.5777 2.54588 22.3135 2.65379 22.0665C2.76048 21.8226 2.91526 21.606 3.11692 21.4146L4.42526 20.1099C4.38327 20.0228 4.34323 19.9373 4.30563 19.8536C4.20529 19.6317 4.10666 19.3946 4.00949 19.1427C3.9172 18.9056 3.83176 18.6583 3.75314 18.4015C3.72702 18.3158 3.70212 18.2318 3.67844 18.1488H2.05833C1.77611 18.1488 1.51171 18.0968 1.26464 17.9933C1.02099 17.8915 0.801507 17.7416 0.605464 17.5438L0.591304 17.5292C0.398434 17.3297 0.252195 17.1092 0.152343 16.8678C0.0505367 16.6217 0 16.3641 0 16.0948V13.1784C0 12.8978 0.0498043 12.6352 0.149901 12.3898C0.249998 12.1444 0.399167 11.922 0.598872 11.7221L0.599116 11.7218L0.600581 11.7206L0.601802 11.7194C0.801995 11.5197 1.02416 11.3703 1.26977 11.2702C1.51512 11.1701 1.77782 11.1205 2.05833 11.1205H3.91598C3.94821 11.0329 3.98239 10.9428 4.01852 10.8503C4.11129 10.6115 4.21212 10.3725 4.3215 10.1335C4.43429 9.88664 4.54928 9.65349 4.66695 9.43596C4.70602 9.36345 4.74654 9.29094 4.78805 9.21843L3.64523 8.07196L3.64475 8.07171C3.44284 7.87323 3.29001 7.64984 3.18577 7.40302C3.07908 7.15106 3.02634 6.88593 3.02634 6.60981C3.02634 6.33418 3.07883 6.07148 3.18479 5.82075C3.28977 5.57246 3.44113 5.34908 3.63962 5.15059L3.64084 5.15181L5.68086 3.10691L5.68599 3.10178C5.88618 2.90501 6.10664 2.75437 6.34834 2.65135C6.59785 2.54515 6.86152 2.49095 7.14008 2.49095C7.42255 2.49095 7.68671 2.54588 7.93377 2.65379C8.17596 2.7595 8.39129 2.91331 8.58147 3.11277L9.90983 4.42184C9.98967 4.38229 10.0693 4.34445 10.1486 4.30783C10.3529 4.21359 10.5785 4.11862 10.8254 4.02292C10.8358 4.01803 10.8466 4.01364 10.8573 4.00949C11.0944 3.9172 11.3419 3.83176 11.5988 3.75314C11.6842 3.72702 11.7685 3.70212 11.8515 3.67844V2.05809C11.8515 1.77611 11.9035 1.51171 12.007 1.26464C12.1088 1.02099 12.2589 0.801507 12.4564 0.60522L12.4704 0.591304C12.6701 0.398434 12.8903 0.252439 13.1317 0.152587C13.3778 0.0505367 13.6354 0 13.9052 0H16.8212C17.1014 0 17.3644 0.0495601 17.6097 0.149657C17.8563 0.250242 18.0794 0.400387 18.2806 0.601313C18.4793 0.800531 18.6292 1.02319 18.7298 1.26952C18.8299 1.51488 18.8795 1.77757 18.8795 2.05784V3.91574C18.9671 3.94821 19.057 3.98239 19.1497 4.01828C19.3883 4.11105 19.627 4.21188 19.8661 4.32101C20.1131 4.4338 20.3463 4.54904 20.5636 4.66671C20.6366 4.70602 20.7091 4.7463 20.7816 4.7878L21.9278 3.64499L21.9283 3.64475C22.1268 3.44284 22.3504 3.29001 22.5967 3.18577C22.8489 3.07908 23.1136 3.02634 23.3897 3.02634C23.6658 3.02634 23.9285 3.07859 24.1792 3.18454ZM14.9999 8.62932C15.4347 8.62932 15.859 8.67083 16.2728 8.75335C16.6796 8.83465 17.0829 8.9594 17.482 9.12786L17.4864 9.12981L17.4874 9.12786C17.8685 9.29241 18.2298 9.48894 18.5716 9.71794C18.9102 9.94474 19.224 10.2008 19.5116 10.4858L19.514 10.4884C19.7992 10.7763 20.0553 11.0898 20.2821 11.4286C20.5111 11.7704 20.7073 12.1317 20.8719 12.5128C20.8795 12.5309 20.8863 12.549 20.8924 12.5673C21.0501 12.9503 21.1685 13.3368 21.2462 13.7272C21.3292 14.1412 21.3702 14.5653 21.3702 14.9999C21.3702 15.4347 21.3292 15.859 21.2462 16.2728C21.1651 16.6798 21.0401 17.0826 20.8719 17.482L20.8699 17.4864L20.8719 17.4874C20.7073 17.8685 20.5108 18.2296 20.2821 18.5714C20.055 18.9102 19.7989 19.2237 19.514 19.5116L19.5116 19.5142C19.2235 19.7994 18.9102 20.0555 18.5711 20.2823C18.2298 20.5113 17.8683 20.7076 17.4874 20.8721C17.4693 20.8797 17.4513 20.8868 17.4325 20.8927C17.0497 21.0506 16.663 21.1688 16.2728 21.2467C15.859 21.3294 15.4344 21.3707 14.9999 21.3707C14.5651 21.3707 14.141 21.3294 13.7272 21.2467C13.3202 21.1654 12.9171 21.0404 12.5177 20.8721L12.5133 20.8702L12.5126 20.8721C12.1315 20.7076 11.7699 20.5111 11.4284 20.2823C11.0895 20.0555 10.776 19.7994 10.4884 19.5142L10.486 19.5116C10.2008 19.2235 9.9445 18.9102 9.71794 18.5711C9.48918 18.2296 9.29265 17.868 9.12834 17.4874C9.12053 17.4693 9.1137 17.4513 9.10759 17.4327C8.94963 17.0497 8.83147 16.6632 8.75359 16.2728C8.67107 15.859 8.62957 15.4347 8.62957 14.9999C8.62957 14.5651 8.67083 14.141 8.75359 13.7272C8.83489 13.3202 8.95989 12.9171 9.12834 12.518L9.13005 12.5136L9.12834 12.5128C9.29265 12.1317 9.48942 11.7704 9.71794 11.4289C9.94474 11.0898 10.2008 10.7765 10.486 10.4884L10.4887 10.486C10.7763 10.2011 11.0898 9.94499 11.4284 9.71818C11.7702 9.48942 12.1317 9.29265 12.5128 9.1281C12.5309 9.12029 12.549 9.11345 12.5675 9.10759C12.9506 8.94963 13.3368 8.83172 13.7272 8.75383C14.141 8.67083 14.5651 8.62932 14.9999 8.62932ZM16.016 10.0424C15.6879 9.97673 15.3495 9.94401 14.9999 9.94401C14.6505 9.94401 14.3121 9.97673 13.9838 10.0424C13.6649 10.1061 13.3605 10.1974 13.0704 10.3163C13.0578 10.3227 13.0448 10.329 13.0314 10.3346C12.7145 10.4716 12.423 10.6288 12.1574 10.8066C11.8898 10.9855 11.6422 11.1881 11.4142 11.4137C11.1884 11.642 10.9858 11.89 10.8066 12.1579C10.6288 12.4232 10.4716 12.7145 10.3349 13.0314L10.3332 13.0307C10.206 13.3327 10.1093 13.6505 10.0424 13.984C9.97697 14.3121 9.94425 14.6505 9.94425 14.9999C9.94425 15.3492 9.97697 15.6876 10.0424 16.016C10.1061 16.3348 10.1977 16.6393 10.3166 16.9293C10.3229 16.9422 10.3293 16.9549 10.3349 16.9684C10.4716 17.2853 10.6288 17.5763 10.8063 17.8417C10.9855 18.1095 11.1881 18.3575 11.4142 18.5858C11.6422 18.8116 11.89 19.014 12.1576 19.193C12.423 19.3707 12.7143 19.5279 13.0314 19.6649L13.0307 19.6666C13.3329 19.7938 13.6505 19.8907 13.984 19.9571C14.3121 20.0228 14.6508 20.0553 15.0001 20.0553C15.3495 20.0553 15.6881 20.0225 16.0162 19.9571C16.3353 19.8934 16.6395 19.8021 16.9298 19.6832C16.9422 19.6768 16.9554 19.6705 16.9689 19.6649C17.2855 19.5279 17.5768 19.3707 17.8424 19.193C18.11 19.014 18.3578 18.8114 18.5858 18.5858C18.8119 18.3575 19.0145 18.1097 19.1937 17.8419C19.3712 17.5765 19.5284 17.2853 19.6649 16.9684L19.6668 16.9691C19.794 16.6671 19.891 16.3492 19.9576 16.016C20.023 15.6876 20.0557 15.3492 20.0557 14.9999C20.0557 14.6505 20.0228 14.3121 19.9576 13.984C19.8936 13.6649 19.8026 13.3607 19.6834 13.0704C19.6768 13.0578 19.671 13.0448 19.6649 13.0314C19.5284 12.7145 19.3712 12.4232 19.1932 12.1579C19.0145 11.89 18.8116 11.642 18.5858 11.414C18.3578 11.1884 18.11 10.9858 17.8424 10.8068C17.5768 10.6291 17.2855 10.4718 16.9689 10.3349L16.9693 10.3332C16.6673 10.206 16.3497 10.109 16.016 10.0424Z" fill="#6C63FF"/>
</svg>
