<svg width="30" height="35" viewBox="0 0 30 35" fill="none" xmlns="http://www.w3.org/2000/svg">
<path fill-rule="evenodd" clip-rule="evenodd" d="M11.123 18.1303C10.7131 18.1303 10.3818 17.7344 10.3818 17.2487C10.3818 16.7602 10.7131 16.3672 11.123 16.3672H20.918C21.3279 16.3672 21.6592 16.7631 21.6592 17.2487C21.6592 17.7372 21.3279 18.1303 20.918 18.1303H11.123ZM13.1303 32.7288C13.6188 32.7288 14.0146 33.1247 14.0146 33.6131C14.0146 34.1016 13.6188 34.4975 13.1303 34.4975H2.05783C1.49074 34.4975 0.976979 34.2673 0.603594 33.8939C0.230208 33.5205 0 33.0067 0 32.4396V2.05783C0 1.49074 0.230208 0.976979 0.603594 0.603594C0.976979 0.230208 1.49074 0 2.05783 0H27.3302C27.8972 0 28.411 0.233015 28.7844 0.603594C29.1578 0.976979 29.388 1.49074 29.388 2.05783V16.1342C29.388 16.6227 28.9921 17.0185 28.5036 17.0185C28.0152 17.0185 27.6193 16.6227 27.6193 16.1342V2.05783C27.6193 1.97923 27.5856 1.90623 27.5323 1.8557C27.4789 1.80236 27.4088 1.76867 27.3302 1.76867H2.05783C1.97923 1.76867 1.90623 1.80236 1.85289 1.85289C1.80236 1.90904 1.76867 1.97923 1.76867 2.05783V32.4368C1.76867 32.5154 1.80236 32.5884 1.85289 32.639C1.90623 32.6923 1.97923 32.726 2.05783 32.726H13.1303V32.7288ZM27.7092 20.8703C27.566 20.7327 27.4003 20.6682 27.2094 20.671C27.0185 20.6738 26.8557 20.7468 26.7209 20.89L25.6232 22.0326L28.703 25.0056L29.8119 23.8518C29.9439 23.717 30 23.543 29.9972 23.3521C29.9944 23.164 29.927 22.9927 29.7923 22.8636L27.7092 20.8703ZM21.9568 32.0073C21.5497 32.1364 21.1454 32.2712 20.7412 32.4031C20.3341 32.5379 19.9298 32.6755 19.5255 32.8102C18.5682 33.1247 18.032 33.2987 17.9197 33.3296C17.8102 33.3633 17.8748 32.9141 18.1162 31.9792L18.877 29.0455L24.6463 23.0432L27.7232 26.0051L21.9568 32.0073ZM11.123 24.4104C10.7131 24.4104 10.379 24.009 10.379 23.5149C10.379 23.0208 10.7131 22.6193 11.123 22.6193H15.9489C16.3588 22.6193 16.6929 23.0208 16.6929 23.5149C16.6929 24.009 16.3588 24.4104 15.9489 24.4104H11.123ZM11.123 11.8641C10.7131 11.8641 10.3818 11.4683 10.3818 10.9826C10.3818 10.4941 10.7131 10.1011 11.123 10.1011H20.918C21.3279 10.1011 21.6592 10.4969 21.6592 10.9826C21.6592 11.4711 21.3279 11.8641 20.918 11.8641H11.123ZM6.87254 22.3077C7.45087 22.3077 7.9169 22.7765 7.9169 23.3521C7.9169 23.9304 7.44806 24.3964 6.87254 24.3964C6.29422 24.3964 5.82819 23.9276 5.82819 23.3521C5.82819 22.7765 6.29702 22.3077 6.87254 22.3077ZM6.87254 16.1258C7.45087 16.1258 7.9169 16.5946 7.9169 17.1701C7.9169 17.7485 7.44806 18.2145 6.87254 18.2145C6.29422 18.2145 5.82819 17.7456 5.82819 17.1701C5.82819 16.5946 6.29702 16.1258 6.87254 16.1258ZM6.87254 9.94385C7.45087 9.94385 7.9169 10.4127 7.9169 10.9882C7.9169 11.5665 7.44806 12.0326 6.87254 12.0326C6.29422 12.0326 5.82819 11.5637 5.82819 10.9882C5.82819 10.4099 6.29702 9.94385 6.87254 9.94385Z" fill="#6C63FF"/>
</svg>
