<svg width="508" height="313" viewBox="0 0 508 313" fill="none" xmlns="http://www.w3.org/2000/svg">
<path d="M477.285 264.443L480.042 253.572C484.929 251.5 489.929 249.706 495.018 248.198L495.366 253.251L496.777 247.684C503.089 245.88 507.383 245.086 507.383 245.086C507.383 245.086 501.584 267.142 489.418 284.003L475.244 286.493L486.255 288.081C484.725 289.922 483.08 291.665 481.331 293.3C463.635 309.726 443.925 317.263 437.307 310.133C430.69 303.003 439.671 283.908 457.367 267.484C462.853 262.392 469.744 258.305 476.643 255.089L477.285 264.443Z" fill="#6C63FF"/>
<path d="M451.072 252.635L447.812 241.904C450.925 237.605 454.278 233.484 457.854 229.563L460.764 233.708L459.095 228.214C463.566 223.408 466.831 220.509 466.831 220.509C466.831 220.509 473.266 242.387 471.569 263.11L460.722 272.568L470.971 268.235C470.612 270.603 470.105 272.945 469.452 275.25C462.794 298.458 449.817 315.098 440.467 312.415C431.117 309.733 428.934 288.744 435.592 265.536C437.656 258.341 441.444 251.28 445.687 244.961L451.072 252.635Z" fill="#5850CD"/>
<path d="M288.991 74.3658H290.71V27.2629C290.71 23.6827 291.415 20.1375 292.786 16.8299C294.156 13.5222 296.164 10.5167 298.695 7.98513C301.227 5.45353 304.232 3.44535 307.54 2.07526C310.848 0.705174 314.393 0 317.973 0H417.77C425.001 0 431.935 2.87234 437.048 7.98513C442.161 13.0979 445.033 20.0323 445.033 27.2629V285.677C445.033 289.257 444.328 292.803 442.958 296.11C441.588 299.418 439.58 302.423 437.048 304.955C434.516 307.487 431.511 309.495 428.203 310.865C424.896 312.235 421.351 312.94 417.77 312.94H317.973C310.743 312.94 303.808 310.068 298.696 304.955C293.583 299.842 290.711 292.908 290.711 285.677V107.894H288.991L288.991 74.3658Z" fill="#E6E6E6"/>
<path d="M316.873 7.09021H329.899C329.3 8.55901 329.071 10.1526 329.233 11.7306C329.395 13.3086 329.943 14.8225 330.828 16.1391C331.712 17.4556 332.907 18.5343 334.307 19.2801C335.707 20.026 337.269 20.416 338.856 20.416H396.028C397.615 20.4159 399.176 20.0257 400.576 19.2798C401.976 18.534 403.171 17.4552 404.056 16.1387C404.941 14.8222 405.488 13.3083 405.65 11.7304C405.812 10.1525 405.583 8.55894 404.984 7.09021H417.151C422.551 7.09021 427.729 9.23524 431.548 13.0534C435.366 16.8716 437.511 22.0502 437.511 27.4499V285.489C437.511 290.889 435.366 296.067 431.548 299.885C427.729 303.704 422.551 305.849 417.151 305.849H316.873C311.474 305.849 306.295 303.704 302.477 299.885C298.659 296.067 296.514 290.889 296.514 285.489V27.4495C296.514 22.0498 298.659 16.8714 302.477 13.0533C306.295 9.23518 311.474 7.09021 316.873 7.09021Z" fill="white"/>
<path d="M379.79 109.88C379.79 108.076 379.315 106.304 378.413 104.742C377.511 103.18 376.213 101.884 374.651 100.983C376.213 100.081 377.984 99.6059 379.788 99.6057C381.591 99.6055 383.363 100.08 384.925 100.982C386.487 101.883 387.784 103.18 388.686 104.742C389.588 106.304 390.062 108.076 390.062 109.879C390.062 111.683 389.588 113.454 388.686 115.016C387.784 116.578 386.487 117.875 384.925 118.777C383.363 119.678 381.591 120.153 379.788 120.153C377.984 120.153 376.213 119.678 374.651 118.776C376.213 117.875 377.511 116.578 378.413 115.017C379.315 113.455 379.79 111.683 379.79 109.88Z" fill="#CCCCCC"/>
<path d="M366.875 109.88C366.875 108.076 366.4 106.304 365.498 104.742C364.596 103.18 363.298 101.884 361.736 100.983C363.298 100.081 365.069 99.6059 366.873 99.6057C368.676 99.6055 370.448 100.08 372.01 100.982C373.572 101.883 374.869 103.18 375.771 104.742C376.673 106.304 377.147 108.076 377.147 109.879C377.147 111.683 376.673 113.454 375.771 115.016C374.869 116.578 373.572 117.875 372.01 118.777C370.448 119.678 368.676 120.153 366.873 120.153C365.069 120.153 363.298 119.678 361.736 118.776C363.298 117.875 364.596 116.578 365.498 115.017C366.4 113.455 366.875 111.683 366.875 109.88Z" fill="#CCCCCC"/>
<path d="M354.253 120.153C348.579 120.153 343.979 115.553 343.979 109.879C343.979 104.206 348.579 99.6059 354.253 99.6059C359.927 99.6059 364.526 104.206 364.526 109.879C364.526 115.553 359.927 120.153 354.253 120.153Z" fill="#6C63FF"/>
<path d="M337.083 141.968H396.96C397.53 141.967 398.076 141.74 398.479 141.337C398.882 140.934 399.109 140.388 399.11 139.818V79.9412C399.109 79.3712 398.882 78.8247 398.479 78.4216C398.076 78.0185 397.53 77.7918 396.96 77.7911H337.083C336.513 77.7918 335.967 78.0185 335.564 78.4216C335.161 78.8247 334.934 79.3712 334.933 79.9412V139.818C334.934 140.388 335.161 140.934 335.564 141.337C335.967 141.74 336.513 141.967 337.083 141.968ZM396.96 78.6517C397.302 78.652 397.63 78.788 397.872 79.0299C398.113 79.2717 398.249 79.5996 398.25 79.9417V139.818C398.249 140.16 398.113 140.488 397.872 140.73C397.63 140.972 397.302 141.108 396.96 141.108H337.083C336.741 141.108 336.413 140.972 336.172 140.73C335.93 140.488 335.794 140.16 335.793 139.818V79.9417C335.794 79.5996 335.93 79.2717 336.172 79.0299C336.413 78.788 336.741 78.652 337.083 78.6517H396.96Z" fill="#CCCCCC"/>
<path d="M323.714 187.866H415.546V188.726H323.714V187.866Z" fill="#CCCCCC"/>
<path d="M412.646 182.496C411.045 182.496 409.746 181.197 409.746 179.596C409.746 177.994 411.045 176.696 412.646 176.696C414.248 176.696 415.546 177.994 415.546 179.596C415.546 181.197 414.248 182.496 412.646 182.496Z" fill="#6C63FF"/>
<path d="M323.714 216.866H415.546V217.726H323.714V216.866Z" fill="#CCCCCC"/>
<path d="M412.646 211.496C411.045 211.496 409.746 210.197 409.746 208.596C409.746 206.994 411.045 205.696 412.646 205.696C414.248 205.696 415.546 206.994 415.546 208.596C415.546 210.197 414.248 211.496 412.646 211.496Z" fill="#6C63FF"/>
<path d="M325.394 249.889H354.416C354.917 249.888 355.398 249.689 355.752 249.334C356.107 248.98 356.306 248.499 356.307 247.998V237.826C356.306 237.325 356.107 236.844 355.752 236.49C355.398 236.135 354.917 235.936 354.416 235.935H325.394C324.893 235.936 324.412 236.135 324.058 236.49C323.703 236.844 323.504 237.325 323.503 237.826V247.998C323.504 248.499 323.703 248.98 324.058 249.334C324.412 249.689 324.893 249.888 325.394 249.889Z" fill="#6C63FF"/>
<path d="M403.186 182.496C401.584 182.496 400.286 181.197 400.286 179.596C400.286 177.994 401.584 176.696 403.186 176.696C404.788 176.696 406.086 177.994 406.086 179.596C406.086 181.197 404.788 182.496 403.186 182.496Z" fill="#6C63FF"/>
<path d="M393.726 182.496C392.124 182.496 390.826 181.197 390.826 179.596C390.826 177.994 392.124 176.696 393.726 176.696C395.328 176.696 396.626 177.994 396.626 179.596C396.626 181.197 395.328 182.496 393.726 182.496Z" fill="#6C63FF"/>
<path d="M403.186 211.496C401.584 211.496 400.286 210.197 400.286 208.596C400.286 206.994 401.584 205.696 403.186 205.696C404.788 205.696 406.086 206.994 406.086 208.596C406.086 210.197 404.788 211.496 403.186 211.496Z" fill="#6C63FF"/>
<path d="M393.726 211.496C392.124 211.496 390.826 210.197 390.826 208.596C390.826 206.994 392.124 205.696 393.726 205.696C395.328 205.696 396.626 206.994 396.626 208.596C396.626 210.197 395.328 211.496 393.726 211.496Z" fill="#6C63FF"/>
<path d="M153.209 65.9551C155.058 65.9551 156.558 64.4556 156.558 62.6058C156.558 60.7561 155.058 59.2566 153.209 59.2566C151.359 59.2566 149.859 60.7561 149.859 62.6058C149.859 64.4556 151.359 65.9551 153.209 65.9551Z" fill="white"/>
<rect x="7" y="70" width="294" height="175" fill="white"/>
<path fill-rule="evenodd" clip-rule="evenodd" d="M294 73H13C10.7909 73 9 74.7909 9 77V237C9 239.209 10.7909 241 13 241H294C296.209 241 298 239.209 298 237V77C298 74.7909 296.209 73 294 73ZM13 64C5.8203 64 0 69.8203 0 77V237C0 244.18 5.8203 250 13 250H294C301.18 250 307 244.18 307 237V77C307 69.8203 301.18 64 294 64H13Z" fill="#3F3D56"/>
<circle cx="153.5" cy="68.5" r="2.5" fill="white"/>
<path d="M261.522 188.167H46.9731C45.9197 188.166 44.9099 187.747 44.1651 187.002C43.4202 186.257 43.0012 185.247 43 184.194V130.973C43.0012 129.92 43.4202 128.91 44.1651 128.165C44.9099 127.42 45.9197 127.001 46.9731 127H261.522C262.576 127.001 263.586 127.42 264.33 128.165C265.075 128.91 265.494 129.92 265.496 130.973V184.194C265.494 185.247 265.075 186.257 264.33 187.002C263.586 187.747 262.576 188.166 261.522 188.167ZM46.9731 128.589C46.3411 128.59 45.7351 128.841 45.2882 129.288C44.8413 129.735 44.5899 130.341 44.5893 130.973V184.194C44.5899 184.826 44.8413 185.432 45.2882 185.879C45.7351 186.325 46.3411 186.577 46.9731 186.578H261.522C262.154 186.577 262.76 186.325 263.207 185.879C263.654 185.432 263.906 184.826 263.906 184.194V130.973C263.906 130.341 263.654 129.735 263.207 129.288C262.76 128.841 262.154 128.59 261.522 128.589L46.9731 128.589Z" fill="#E6E6E6"/>
<path d="M80.3094 171.726C89.2478 171.726 96.4939 164.48 96.4939 155.541C96.4939 146.603 89.2478 139.357 80.3094 139.357C71.371 139.357 64.125 146.603 64.125 155.541C64.125 164.48 71.371 171.726 80.3094 171.726Z" fill="#E6E6E6"/>
<path d="M117.688 144.752C117.333 144.751 116.982 144.821 116.654 144.956C116.327 145.091 116.029 145.29 115.778 145.54C115.527 145.791 115.328 146.088 115.192 146.416C115.056 146.743 114.986 147.095 114.986 147.449C114.986 147.804 115.056 148.155 115.192 148.482C115.328 148.81 115.527 149.108 115.778 149.358C116.029 149.609 116.327 149.807 116.654 149.942C116.982 150.078 117.333 150.147 117.688 150.147H244.851C245.567 150.147 246.253 149.862 246.759 149.357C247.264 148.851 247.549 148.165 247.549 147.449C247.549 146.734 247.264 146.048 246.759 145.542C246.253 145.036 245.567 144.752 244.851 144.752H117.688Z" fill="#E6E6E6"/>
<path d="M117.688 160.936C116.973 160.936 116.287 161.22 115.781 161.726C115.275 162.232 114.991 162.918 114.991 163.634C114.991 164.349 115.275 165.035 115.781 165.541C116.287 166.047 116.973 166.331 117.688 166.331H172.407C173.122 166.331 173.808 166.047 174.314 165.541C174.82 165.035 175.104 164.349 175.104 163.634C175.104 162.918 174.82 162.232 174.314 161.726C173.808 161.22 173.122 160.936 172.407 160.936H117.688Z" fill="#E6E6E6"/>
<path d="M297.969 121.031C326.743 121.031 350.068 97.7056 350.068 68.9321C350.068 40.1587 326.743 16.8332 297.969 16.8332C269.196 16.8332 245.87 40.1587 245.87 68.9321C245.87 97.7056 269.196 121.031 297.969 121.031Z" fill="#6C63FF"/>
<path d="M319.553 91.6324H276.385C275.596 91.6317 274.839 91.3177 274.281 90.7596C273.723 90.2015 273.409 89.4447 273.408 88.6553V62.6059C273.409 61.8165 273.723 61.0598 274.281 60.5017C274.839 59.9435 275.596 59.6296 276.385 59.6288H319.553C320.342 59.6296 321.099 59.9435 321.657 60.5017C322.215 61.0598 322.529 61.8165 322.53 62.6059V88.6553C322.529 89.4447 322.215 90.2015 321.657 90.7596C321.099 91.3177 320.342 91.6317 319.553 91.6324ZM276.385 62.6059V88.6553H319.555L319.553 62.6059L276.385 62.6059Z" fill="white"/>
<path d="M311.366 62.6059H284.572V50.6975C284.572 42.0723 290.207 35.8121 297.969 35.8121C305.732 35.8121 311.366 42.0723 311.366 50.6975L311.366 62.6059ZM287.549 59.6288H308.389V50.6975C308.389 43.6862 304.104 38.7892 297.969 38.7892C291.834 38.7892 287.549 43.6862 287.549 50.6975L287.549 59.6288Z" fill="white"/>
<path d="M297.969 77.8634C299.613 77.8634 300.946 76.5305 300.946 74.8863C300.946 73.2421 299.613 71.9092 297.969 71.9092C296.325 71.9092 294.992 73.2421 294.992 74.8863C294.992 76.5305 296.325 77.8634 297.969 77.8634Z" fill="white"/>
</svg>
