<svg width="30" height="30" viewBox="0 0 30 30" fill="none" xmlns="http://www.w3.org/2000/svg">
<path d="M8.90439 20.6052C8.40495 20.6052 8 20.2002 8 19.7008C8 19.2014 8.40495 18.7964 8.90439 18.7964H15.6265C16.126 18.7964 16.5309 19.2014 16.5309 19.7008C16.5309 20.2002 16.126 20.6052 15.6265 20.6052H8.90439ZM8.90439 11.8088C8.40495 11.8088 8 11.4038 8 10.9044C8 10.4049 8.40495 10 8.90439 10H20.8301C21.3296 10 21.7345 10.4049 21.7345 10.9044C21.7345 11.4038 21.3296 11.8088 20.8301 11.8088H8.90439ZM8.90439 16.207C8.40495 16.207 8 15.802 8 15.3026C8 14.8032 8.40495 14.3982 8.90439 14.3982H20.8301C21.3296 14.3982 21.7345 14.8032 21.7345 15.3026C21.7345 15.802 21.3296 16.207 20.8301 16.207H8.90439Z" fill="#6C63FF"/>
<circle cx="15" cy="15" r="14.5" stroke="#6C63FF"/>
</svg>
