<svg width="305" height="93" viewBox="0 0 305 93" fill="none" xmlns="http://www.w3.org/2000/svg">
<path d="M91.9992 92.1263H9.40319C7.01684 92.1236 4.72901 91.1745 3.04161 89.4871C1.3542 87.7997 0.40503 85.5118 0.402344 83.1255V15.8839C0.40503 13.4975 1.3542 11.2097 3.04161 9.52226C4.72901 7.83486 7.01684 6.8857 9.40319 6.88301H91.9992C94.3855 6.8857 96.6734 7.83486 98.3608 9.52226C100.048 11.2097 100.997 13.4975 101 15.8839V83.1255C100.997 85.5118 100.048 87.7997 98.3608 89.4871C96.6734 91.1745 94.3855 92.1236 91.9992 92.1263ZM9.40319 7.94193C7.29759 7.94432 5.27892 8.78181 3.79004 10.2707C2.30115 11.7596 1.46365 13.7783 1.46127 15.8839V83.1255C1.46365 85.2311 2.30115 87.2497 3.79004 88.7386C5.27892 90.2275 7.29759 91.065 9.40319 91.0674H91.9992C94.1048 91.065 96.1235 90.2275 97.6124 88.7386C99.1012 87.2497 99.9387 85.2311 99.9411 83.1255V15.8839C99.9387 13.7783 99.1012 11.7596 97.6124 10.2707C96.1235 8.78181 94.1048 7.94432 91.9992 7.94193H9.40319Z" fill="#999999"/>
<path d="M82.6108 27.0756H40.9257C40.5594 27.083 40.2038 26.9511 39.931 26.7065C39.6582 26.4618 39.4885 26.1227 39.4561 25.7577C39.446 25.5688 39.4744 25.3798 39.5397 25.2022C39.605 25.0246 39.7058 24.8622 39.8359 24.7249C39.9661 24.5875 40.1228 24.4782 40.2966 24.4034C40.4705 24.3287 40.6577 24.2901 40.8469 24.2901H83.2798C84.6777 25.5185 83.8263 27.0756 82.6108 27.0756Z" fill="#CCCCCC"/>
<path d="M82.6108 34.3875H40.9257C40.5594 34.3949 40.2038 34.263 39.931 34.0183C39.6582 33.7737 39.4885 33.4346 39.4561 33.0696C39.446 32.8807 39.4744 32.6916 39.5397 32.5141C39.605 32.3365 39.7058 32.1741 39.8359 32.0368C39.9661 31.8994 40.1228 31.79 40.2966 31.7153C40.4705 31.6405 40.6577 31.602 40.8469 31.602H83.2798C84.6777 32.8303 83.8263 34.3875 82.6108 34.3875Z" fill="#CCCCCC"/>
<path d="M31.9146 38.5506H19.1927C18.7773 38.5502 18.379 38.385 18.0853 38.0913C17.7916 37.7976 17.6264 37.3993 17.626 36.984V21.9711C17.6264 21.5557 17.7916 21.1574 18.0853 20.8637C18.379 20.57 18.7773 20.4048 19.1927 20.4044H31.9146C32.3299 20.4049 32.7281 20.5702 33.0218 20.8639C33.3154 21.1576 33.4807 21.5557 33.4813 21.9711V36.984C33.4808 37.3993 33.3156 37.7976 33.0219 38.0913C32.7282 38.385 32.3299 38.5502 31.9146 38.5506Z" fill="#3F3D56"/>
<path d="M82.4901 49.3585H18.871C18.5046 49.366 18.1491 49.234 17.8763 48.9894C17.6035 48.7448 17.4338 48.4057 17.4014 48.0407C17.3913 47.8517 17.4197 47.6627 17.485 47.4852C17.5503 47.3076 17.6511 47.1452 17.7812 47.0078C17.9114 46.8705 18.0681 46.7611 18.242 46.6864C18.4158 46.6116 18.603 46.5731 18.7922 46.5731H83.1596C84.5575 47.8014 83.7056 49.3585 82.4901 49.3585Z" fill="#CCCCCC"/>
<path d="M82.4901 56.6725H18.871C18.5046 56.6799 18.1491 56.548 17.8763 56.3034C17.6035 56.0587 17.4338 55.7196 17.4014 55.3546C17.3913 55.1657 17.4197 54.9767 17.485 54.7991C17.5503 54.6215 17.6511 54.4591 17.7812 54.3218C17.9114 54.1844 18.0681 54.0751 18.242 54.0003C18.4158 53.9256 18.603 53.887 18.7922 53.887H83.1596C84.5575 55.1154 83.7056 56.6725 82.4901 56.6725Z" fill="#CCCCCC"/>
<path d="M82.4901 63.9817H18.871C18.5046 63.9892 18.1491 63.8572 17.8763 63.6126C17.6035 63.368 17.4338 63.0289 17.4014 62.6639C17.3913 62.4749 17.4197 62.2859 17.485 62.1083C17.5503 61.9308 17.6511 61.7683 17.7812 61.631C17.9114 61.4937 18.0681 61.3843 18.242 61.3095C18.4158 61.2348 18.603 61.1962 18.7922 61.1962H83.1596C84.5575 62.4246 83.7056 63.9817 82.4901 63.9817Z" fill="#CCCCCC"/>
<path d="M82.4901 71.2952H18.871C18.5046 71.3026 18.1491 71.1707 17.8763 70.9261C17.6035 70.6814 17.4338 70.3423 17.4014 69.9773C17.3913 69.7884 17.4197 69.5994 17.485 69.4218C17.5503 69.2442 17.6511 69.0818 17.7812 68.9445C17.9114 68.8071 18.0681 68.6978 18.242 68.623C18.4158 68.5483 18.603 68.5097 18.7922 68.5097H83.1596C84.5575 69.7381 83.7056 71.2952 82.4901 71.2952Z" fill="#CCCCCC"/>
<path d="M82.4901 78.6049H18.871C18.5046 78.6124 18.1491 78.4804 17.8763 78.2358C17.6035 77.9911 17.4338 77.6521 17.4014 77.2871C17.3913 77.0981 17.4197 76.9091 17.485 76.7315C17.5503 76.5539 17.6511 76.3915 17.7812 76.2542C17.9114 76.1169 18.0681 76.0075 18.242 75.9327C18.4158 75.858 18.603 75.8194 18.7922 75.8194H83.1596C84.5575 77.0478 83.7056 78.6049 82.4901 78.6049Z" fill="#CCCCCC"/>
<path d="M73.9977 0C74.6996 0.000802956 75.3725 0.279973 75.8688 0.776265C76.3651 1.27256 76.6442 1.94544 76.6451 2.64731V11.1187C76.6442 11.8206 76.3651 12.4934 75.8688 12.9897C75.3725 13.486 74.6996 13.7652 73.9977 13.766H27.4051C26.7033 13.7652 26.0304 13.486 25.5341 12.9897C25.0378 12.4934 24.7586 11.8206 24.7578 11.1187V2.64731C24.7586 1.94544 25.0378 1.27256 25.5341 0.776265C26.0304 0.279973 26.7033 0.000802956 27.4051 0" fill="#6C63FF"/>
<path d="M295.127 60.32C293.18 60.32 291.447 59.9867 289.927 59.32C288.407 58.6533 287.207 57.7467 286.327 56.6C285.447 55.4267 284.953 54.12 284.847 52.68H291.607C291.687 53.4533 292.047 54.08 292.687 54.56C293.327 55.04 294.113 55.28 295.047 55.28C295.9 55.28 296.553 55.12 297.007 54.8C297.487 54.4533 297.727 54.0133 297.727 53.48C297.727 52.84 297.393 52.3733 296.727 52.08C296.06 51.76 294.98 51.4133 293.487 51.04C291.887 50.6667 290.553 50.28 289.487 49.88C288.42 49.4533 287.5 48.8 286.727 47.92C285.953 47.0133 285.567 45.8 285.567 44.28C285.567 43 285.913 41.84 286.607 40.8C287.327 39.7333 288.367 38.8933 289.727 38.28C291.113 37.6667 292.753 37.36 294.647 37.36C297.447 37.36 299.647 38.0533 301.247 39.44C302.873 40.8267 303.807 42.6667 304.047 44.96H297.727C297.62 44.1867 297.273 43.5733 296.687 43.12C296.127 42.6667 295.38 42.44 294.447 42.44C293.647 42.44 293.033 42.6 292.607 42.92C292.18 43.2133 291.967 43.6267 291.967 44.16C291.967 44.8 292.3 45.28 292.967 45.6C293.66 45.92 294.727 46.24 296.167 46.56C297.82 46.9867 299.167 47.4133 300.207 47.84C301.247 48.24 302.153 48.9067 302.927 49.84C303.727 50.7467 304.14 51.9733 304.167 53.52C304.167 54.8267 303.793 56 303.047 57.04C302.327 58.0533 301.273 58.8533 299.887 59.44C298.527 60.0267 296.94 60.32 295.127 60.32Z" fill="black"/>
<path d="M282.438 48.48C282.438 49.12 282.398 49.7867 282.318 50.48H266.838C266.945 51.8667 267.385 52.9333 268.158 53.68C268.958 54.4 269.931 54.76 271.078 54.76C272.785 54.76 273.971 54.04 274.638 52.6H281.918C281.545 54.0667 280.865 55.3867 279.878 56.56C278.918 57.7333 277.705 58.6533 276.238 59.32C274.771 59.9867 273.131 60.32 271.318 60.32C269.131 60.32 267.185 59.8533 265.478 58.92C263.771 57.9867 262.438 56.6533 261.478 54.92C260.518 53.1867 260.038 51.16 260.038 48.84C260.038 46.52 260.505 44.4933 261.438 42.76C262.398 41.0267 263.731 39.6933 265.438 38.76C267.145 37.8267 269.105 37.36 271.318 37.36C273.478 37.36 275.398 37.8133 277.078 38.72C278.758 39.6267 280.065 40.92 280.998 42.6C281.958 44.28 282.438 46.24 282.438 48.48ZM275.438 46.68C275.438 45.5067 275.038 44.5733 274.238 43.88C273.438 43.1867 272.438 42.84 271.238 42.84C270.091 42.84 269.118 43.1733 268.318 43.84C267.545 44.5067 267.065 45.4533 266.878 46.68H275.438Z" fill="black"/>
<path d="M257.588 54.2V60H254.108C251.628 60 249.694 59.4 248.308 58.2C246.921 56.9733 246.228 54.9867 246.228 52.24V43.36H243.508V37.68H246.228V32.24H253.068V37.68H257.548V43.36H253.068V52.32C253.068 52.9867 253.228 53.4667 253.548 53.76C253.868 54.0533 254.401 54.2 255.148 54.2H257.588Z" fill="black"/>
<path d="M229.839 60.32C227.653 60.32 225.679 59.8533 223.919 58.92C222.186 57.9867 220.813 56.6533 219.799 54.92C218.813 53.1867 218.319 51.16 218.319 48.84C218.319 46.5467 218.826 44.5333 219.839 42.8C220.853 41.04 222.239 39.6933 223.999 38.76C225.759 37.8267 227.733 37.36 229.919 37.36C232.106 37.36 234.079 37.8267 235.839 38.76C237.599 39.6933 238.986 41.04 239.999 42.8C241.013 44.5333 241.519 46.5467 241.519 48.84C241.519 51.1333 240.999 53.16 239.959 54.92C238.946 56.6533 237.546 57.9867 235.759 58.92C233.999 59.8533 232.026 60.32 229.839 60.32ZM229.839 54.4C231.146 54.4 232.253 53.92 233.159 52.96C234.093 52 234.559 50.6267 234.559 48.84C234.559 47.0533 234.106 45.68 233.199 44.72C232.319 43.76 231.226 43.28 229.919 43.28C228.586 43.28 227.479 43.76 226.599 44.72C225.719 45.6533 225.279 47.0267 225.279 48.84C225.279 50.6267 225.706 52 226.559 52.96C227.439 53.92 228.533 54.4 229.839 54.4Z" fill="black"/>
<path d="M214.721 60H207.881L196.441 42.68V60H189.601V31.92H196.441L207.881 49.32V31.92H214.721V60Z" fill="black"/>
<path d="M187.128 37.68L173.128 70.6H165.768L170.888 59.24L161.808 37.68H169.448L174.608 51.64L179.728 37.68H187.128Z" fill="black"/>
<path d="M159.409 31.92V60H152.569V43.16L146.289 60H140.769L134.449 43.12V60H127.609V31.92H135.689L143.569 51.36L151.369 31.92H159.409Z" fill="black"/>
</svg>
