<svg width="17" height="16" viewBox="0 0 17 16" fill="none" xmlns="http://www.w3.org/2000/svg">
<path d="M16.625 13.875C17.0938 14.375 17.0938 15.1563 16.625 15.6563C16.125 16.125 15.3438 16.125 14.8438 15.6563L11.125 11.9063C9.84378 12.75 8.28128 13.1875 6.59378 12.9688C3.71878 12.5625 1.40628 10.2188 1.03128 7.37503C0.500034 3.12503 4.09378 -0.468716 8.34378 0.0625338C11.1875 0.437534 13.5313 2.75003 13.9375 5.62503C14.1563 7.31253 13.7188 8.87503 12.875 10.125L16.625 13.875ZM3.46878 6.50003C3.46878 8.71878 5.25003 10.5 7.46878 10.5C9.65628 10.5 11.4688 8.71878 11.4688 6.50003C11.4688 4.31253 9.65628 2.50003 7.46878 2.50003C5.25003 2.50003 3.46878 4.31253 3.46878 6.50003Z" fill="#6C63FF"/>
</svg>
