<svg width="31" height="36" viewBox="0 0 31 36" fill="none" xmlns="http://www.w3.org/2000/svg">
<path d="M12.375 25.8926C12.375 26.2793 12.0312 26.5801 11.6875 26.5801C11.3008 26.5801 11 26.2793 11 25.8926V13.9551C11 13.6113 11.3008 13.2676 11.6875 13.2676C12.0312 13.2676 12.375 13.6113 12.375 13.9551V25.8926ZM15.8125 25.8926C15.8125 26.2793 15.4688 26.5801 15.125 26.5801C14.7383 26.5801 14.4375 26.2793 14.4375 25.8926V13.9551C14.4375 13.6113 14.7383 13.2676 15.125 13.2676C15.4688 13.2676 15.8125 13.6113 15.8125 13.9551V25.8926ZM19.25 25.8926C19.25 26.2793 18.9062 26.5801 18.5625 26.5801C18.1758 26.5801 17.875 26.2793 17.875 25.8926V13.9551C17.875 13.6113 18.1758 13.2676 18.5625 13.2676C18.9062 13.2676 19.25 13.6113 19.25 13.9551V25.8926ZM19.1211 6.7793L20.7109 9.14258H23.7188C24.2773 9.14258 24.75 9.61523 24.75 10.1738C24.75 10.7754 24.2773 11.2051 23.7188 11.2051H23.375V27.2676C23.375 29.2012 21.8281 30.7051 19.9375 30.7051H10.3125C8.37891 30.7051 6.875 29.2012 6.875 27.2676V11.2051H6.53125C5.92969 11.2051 5.5 10.7754 5.5 10.1738C5.5 9.61523 5.92969 9.14258 6.53125 9.14258H9.49609L11.0859 6.7793C11.5156 6.13477 12.2891 5.70508 13.1055 5.70508H17.1016C17.918 5.70508 18.6914 6.13477 19.1211 6.7793ZM11.9883 9.14258H18.2188L17.4023 7.93945C17.3594 7.85352 17.2305 7.76758 17.1016 7.76758H13.1055C12.9766 7.76758 12.8477 7.85352 12.8047 7.93945L11.9883 9.14258ZM8.9375 27.2676C8.9375 28.041 9.53906 28.6426 10.3125 28.6426H19.9375C20.668 28.6426 21.3125 28.041 21.3125 27.2676V11.2051H8.9375V27.2676Z" fill="#6C63FF"/>
</svg>
